PathFileType	4	(X/Y/Z)	testWalking.trc	
DataRate	CameraRate	NumFrames	NumMarkers	Units	OrigDataRate	OrigDataStartFrame	OrigNumFrames
120	120	14	28	mm	120	157	183
Frame#	Time	RSHO			LSHO			C7			RASI			LASI			SACR			RTHAP			RTHAD			RTHLD			RLEPI			RTIAP			RTIAD			RLMAL			RHEEL			RP1MT			RP5MT			RTOE			LTHAP			LTHAD			LTHLD			LLEPI			LTIAP			LTIAD			LLMAL			LHEEL			LP1MT			LP5MT			LTOE			
		X1	Y1	Z1	X2	Y2	Z2	X3	Y3	Z3	X4	Y4	Z4	X5	Y5	Z5	X6	Y6	Z6	X7	Y7	Z7	X8	Y8	Z8	X9	Y9	Z9	X10	Y10	Z10	X11	Y11	Z11	X12	Y12	Z12	X13	Y13	Z13	X14	Y14	Z14	X15	Y15	Z15	X16	Y16	Z16	X17	Y17	Z17	X18	Y18	Z18	X19	Y19	Z19	X20	Y20	Z20	X21	Y21	Z21	X22	Y22	Z22	X23	Y23	Z23	X24	Y24	Z24	X25	Y25	Z25	X26	Y26	Z26	X27	Y27	Z27	X28	Y28	Z28	

23	0.18333	385.95984	1460.35059	162.93556	355.81091	1479.83594	-209.81432	319.45300	1544.36035	-24.63103	425.91583	1007.68060	111.13136	402.30328	1007.77368	-160.56047	229.12605	1033.53296	-13.20750	560.12299	754.42352	83.07738	589.12360	654.60767	105.83290	506.35437	650.97162	163.06215	532.99658	546.00500	149.25053	498.94781	391.12018	75.23936	429.15167	293.30280	70.25856	308.05899	194.65709	107.20161	248.26547	184.95317	50.50757	379.44684	76.08420	149.19594	412.20740	68.28876	29.98653	452.66449	63.70749	82.32082	442.82684	688.08557	-96.40861	429.78046	608.37134	-90.87835	353.90039	613.71008	-157.39302	344.06610	512.89880	-139.94789	351.88446	354.50906	-57.81023	334.99884	247.47470	-52.27141	265.20465	98.66398	-84.57826	212.77536	62.52410	-28.24741	392.63531	34.35033	-125.64469	421.54913	43.98117	-9.11206	460.84924	48.49816	-41.31331	
24	0.19167	395.41095	1459.83569	162.92427	367.04279	1480.07751	-209.99054	329.51611	1544.25525	-24.84981	436.04230	1007.74780	110.81508	412.73541	1007.66388	-161.01741	239.33749	1033.44177	-13.34288	572.07892	756.85870	81.60783	602.57568	657.51477	104.67247	520.27472	652.80481	162.32777	547.37701	547.62744	148.08217	519.65540	390.86572	74.52220	454.78259	289.66306	69.78835	338.85657	184.97809	107.13594	279.97052	171.57692	50.31583	416.80682	70.78675	149.29070	450.15106	64.78548	29.95811	491.27441	62.79701	83.96059	448.59265	686.73608	-96.56348	433.85510	606.76135	-90.62040	357.99902	613.66345	-157.26436	346.20667	513.15796	-139.98505	353.03827	354.66638	-57.71675	335.87469	247.54051	-52.37024	265.36508	98.88340	-84.39723	212.91264	62.96803	-27.97481	392.64880	34.32309	-125.66275	420.74286	44.06768	-8.37708	460.76605	48.50238	-41.44017	
25	0.20000	404.55908	1459.21777	162.91753	378.11707	1480.18860	-210.06831	339.73584	1543.93591	-25.01439	446.11053	1007.60876	110.58925	423.03210	1007.30505	-161.16962	249.56848	1033.21948	-13.48660	583.73853	758.84454	80.14946	615.16083	659.79755	103.46449	533.68933	654.23517	161.46431	560.99548	548.77283	146.84654	539.95068	390.32352	73.84312	480.51166	285.83749	69.41328	370.14606	175.27295	107.11324	312.08954	158.26289	50.42101	454.70337	65.70711	149.46156	488.16614	61.29008	30.75058	529.48907	62.02242	84.68550	454.42798	685.27966	-96.86356	438.04205	605.17725	-90.46147	362.01715	613.59326	-157.18840	348.42883	513.30994	-139.98158	354.30072	354.68665	-57.70035	336.74615	247.62552	-52.57741	265.57202	99.17227	-84.05566	212.93031	63.40498	-27.51408	392.64349	34.31080	-125.65738	420.17993	44.05188	-7.97568	460.69238	48.49282	-41.41983	
26	0.20833	413.51886	1458.46191	162.89745	389.10016	1479.90881	-210.20746	350.02527	1543.46741	-25.13414	456.28253	1007.28448	110.46611	433.26831	1006.81604	-161.21899	259.82349	1032.83398	-13.62833	595.13043	760.33344	78.80196	626.89441	661.41809	102.07466	546.55975	655.22021	160.47652	573.87653	549.39337	145.59859	559.93909	389.44736	73.20540	506.20313	281.91190	69.03549	402.11322	165.48079	107.14262	344.95892	145.08838	50.49643	492.84454	61.07854	149.70457	526.52747	58.33338	31.45979	567.73932	61.99596	84.34972	460.29407	683.63971	-97.19577	442.63379	603.84418	-90.55584	365.97742	613.44489	-157.13547	350.77466	513.29718	-139.87569	355.61243	354.77246	-57.71667	337.61523	247.75424	-52.63226	265.77893	99.47801	-83.64426	212.87875	63.86525	-26.96172	392.59998	34.31554	-125.65576	421.43549	44.18628	-7.92049	460.82568	48.35726	-41.24344	
27	0.21667	422.77185	1457.45044	162.93892	400.15149	1479.19690	-210.30482	360.32819	1542.80762	-25.22342	466.44855	1006.76129	110.36974	443.59894	1006.18427	-161.33452	270.13797	1032.27454	-13.73051	606.28296	761.20044	77.52895	638.19232	662.39966	100.55437	558.90973	655.69806	159.29387	586.05188	549.43091	144.26653	579.52063	388.30521	72.50755	531.86005	277.97910	68.64482	434.65668	155.81248	107.24416	378.69666	132.13063	50.58078	531.18726	57.10796	150.08217	565.32745	56.22180	31.92036	605.96033	62.40120	84.40022	466.22595	681.82281	-97.56487	448.10162	602.37201	-91.16396	369.83759	613.30115	-157.10010	353.17969	513.22827	-139.71454	356.98651	354.89047	-57.73254	338.55383	247.93071	-52.59279	265.92297	99.75089	-83.40752	212.96222	64.28797	-26.45839	392.54126	34.32456	-125.67004	422.30743	44.35938	-8.00951	460.97620	48.22445	-41.22034	
28	0.22500	432.24670	1456.25781	163.01262	411.41455	1478.65186	-210.21445	370.64679	1541.94104	-25.28561	476.68036	1005.97968	110.40709	453.95306	1005.33972	-161.45496	280.54242	1031.58044	-13.78024	617.04987	761.49609	76.35570	649.77643	662.90387	99.25075	570.50891	655.62421	157.98964	597.56927	548.92664	142.80095	598.60217	387.03589	71.81557	557.53607	274.15805	68.34056	467.61493	146.72639	107.50252	413.25940	119.59335	50.72916	569.74677	53.88910	150.63066	603.96088	54.88272	32.83331	643.73090	63.00433	85.02815	472.20416	679.90863	-98.08508	448.13458	600.83075	-90.90096	373.77203	613.10944	-157.07309	355.57928	513.22729	-139.60506	358.41962	354.96921	-57.79211	339.57111	248.10587	-52.62151	266.01337	100.00829	-83.31633	213.14832	64.67776	-26.00780	392.50531	34.30056	-125.69122	422.40326	44.35789	-8.06815	461.05939	48.17350	-41.39424	
29	0.23333	441.78162	1454.90442	163.07249	422.66681	1478.35461	-210.10246	381.01038	1540.88159	-25.33832	487.07300	1004.96417	110.56416	464.14252	1004.19568	-161.50992	291.01862	1030.76001	-13.76605	627.39435	761.19250	75.28252	660.99249	662.72162	98.10573	581.41638	654.93671	156.53194	608.31219	547.92871	141.22554	617.18268	385.69568	71.07881	583.11871	270.53769	68.07111	500.89063	138.19211	107.95006	448.39832	107.63675	50.98064	608.64844	51.68914	151.31093	642.66125	54.35364	33.74220	681.60101	64.61850	85.87059	478.16327	677.80530	-98.71525	453.83459	599.49701	-91.59457	377.86438	612.75616	-157.07098	358.04340	513.26129	-139.63818	359.95605	355.00888	-57.90642	340.61932	248.22371	-52.72093	266.06848	100.27117	-83.19494	213.33707	65.07268	-25.58888	392.47308	34.26785	-125.69402	422.31824	44.37941	-8.11761	460.95215	48.22354	-41.59499	
30	0.24167	451.62659	1453.35400	163.18764	433.96222	1477.68958	-210.02373	391.40356	1539.63806	-25.35136	497.53015	1003.73279	110.72408	474.45062	1002.72504	-161.49146	301.55731	1029.79785	-13.68369	637.55322	760.15198	74.22447	671.43701	661.65778	96.82646	591.94202	653.58356	154.79008	618.19733	546.39581	139.58904	635.17902	384.25620	70.30925	608.46411	267.17703	67.72485	534.49280	130.03775	108.24333	484.06744	96.42822	51.34195	647.47681	50.49866	152.09688	681.42999	54.86306	34.44620	719.67761	67.93835	86.67961	484.11877	675.56598	-99.32136	460.49292	597.75659	-92.45803	382.01294	612.33771	-157.08263	360.71979	513.16492	-139.70552	361.64807	354.95221	-58.07739	341.74951	248.28931	-52.88037	266.13007	100.53190	-83.04576	213.52533	65.50564	-25.25334	392.37573	34.31836	-125.71773	422.02209	44.44863	-8.09370	460.93256	48.09367	-41.70956	
31	0.25000	461.52826	1451.60522	163.37856	445.37299	1476.75793	-209.86771	401.78845	1538.24597	-25.30557	508.04468	1002.26563	110.79588	485.10736	1001.16168	-161.43568	312.20270	1028.70581	-13.53903	647.29901	758.35742	73.16438	681.34973	659.75543	95.39003	601.69910	651.59338	152.91566	627.35065	544.30902	137.90651	652.61115	382.70462	69.49312	633.56409	264.19626	67.39172	568.63965	122.75384	108.36650	520.32568	86.28342	51.61192	685.61005	50.20604	152.91084	719.93115	56.67698	35.19801	757.32434	72.45424	87.50139	490.04962	673.31763	-99.92842	465.28638	595.48328	-92.90148	386.12677	611.90289	-157.38483	363.73468	512.91534	-139.76886	363.50867	354.80658	-58.29871	342.94135	248.31038	-53.08966	266.23267	100.80079	-82.97487	213.70076	65.99400	-25.03981	392.28107	34.39960	-125.82351	421.75067	44.54038	-8.09225	461.34631	47.67813	-41.80249	
32	0.25833	471.26312	1449.71692	163.56700	456.74969	1475.61963	-209.67940	412.16022	1536.66333	-25.24113	518.69958	1000.60266	110.83870	495.63214	999.57037	-161.46767	322.93024	1027.47900	-13.31015	656.52679	755.90704	72.21529	690.81866	657.07288	93.82451	610.56207	649.01355	150.98094	635.87396	541.68951	136.10280	669.65076	381.15918	68.63158	658.36444	261.75861	67.15724	602.77307	116.73734	108.62199	556.81415	77.39493	51.71809	723.41418	51.21944	153.54695	757.98206	59.88625	35.97563	794.06573	77.77390	88.20491	495.94061	670.99036	-100.53629	469.85822	593.28497	-93.41586	390.53802	611.36267	-157.85114	367.13586	512.53497	-139.89911	365.50354	354.66168	-58.49501	344.19489	248.25021	-53.30986	266.39423	101.07677	-82.98289	213.82899	66.53815	-24.91869	392.27106	34.39905	-125.94122	421.75061	44.53943	-8.29999	461.64990	47.35895	-41.90811	
33	0.26667	481.32117	1447.71460	163.72002	468.13495	1474.15625	-209.51416	422.55737	1534.89758	-25.15096	529.52789	998.81213	110.94850	506.16022	997.72925	-161.26535	333.67682	1026.05933	-12.99979	665.74506	752.81769	71.49431	699.80212	653.62970	92.24287	618.76215	645.93329	148.98482	643.91589	538.47900	134.06279	686.38562	379.73907	67.95148	682.81494	259.94965	67.00171	636.31885	111.80370	108.93727	593.32520	69.74016	51.38286	760.78650	53.70576	154.07182	795.21350	64.57185	36.67537	829.79620	84.44825	88.83018	501.84314	668.66992	-101.06192	474.68011	591.30695	-94.09023	395.49695	610.67413	-158.10800	370.71777	512.14349	-140.09529	367.52789	354.49197	-58.53477	345.51025	248.14836	-53.31703	266.65030	101.36324	-82.94594	213.90303	67.12590	-24.85445	392.26501	34.35208	-125.99998	421.83490	44.46328	-8.57437	461.60211	47.20743	-41.95543	
34	0.27500	491.41052	1445.57373	163.95473	479.63647	1472.53967	-209.27016	432.99921	1533.02478	-24.98532	540.52484	996.87555	111.01488	516.84399	995.67834	-160.99144	344.48071	1024.39807	-12.64023	674.89923	749.04413	70.92113	708.15363	649.45709	90.73232	626.37085	642.42761	147.06163	651.66199	534.72192	131.85271	702.78888	378.43527	67.45891	706.71533	258.85611	66.93893	669.29089	108.07347	109.10915	629.38763	63.51865	50.92503	796.98108	57.51008	154.67619	831.11078	70.82294	37.38638	864.18854	92.58688	89.68187	507.83075	666.42535	-101.50629	479.66125	589.36102	-94.47224	400.59918	609.88013	-158.48645	374.39648	511.82834	-140.37286	369.61261	354.20505	-58.45862	346.83588	248.05986	-53.13765	267.00739	101.66061	-82.82422	213.96469	67.72971	-24.84460	392.21283	34.31638	-126.03694	421.85114	44.51257	-8.60040	461.50812	47.10056	-41.99377	
35	0.28333	501.32062	1443.34473	164.28023	491.17664	1470.79663	-208.87411	443.52435	1530.99048	-24.77251	551.81836	994.84216	111.10780	527.32123	993.60889	-161.03465	355.34967	1022.48383	-12.20665	683.59119	744.55444	70.34972	715.85931	644.49432	89.17870	633.53485	638.46600	145.37212	659.26508	530.59515	129.71465	718.83875	377.38760	67.03139	729.78033	258.47351	66.86227	701.34961	105.61306	109.18144	664.13971	58.96486	51.03973	831.64331	62.54928	155.25642	865.31873	78.49870	38.17052	896.86481	101.88498	90.73564	514.02759	664.22357	-101.77748	484.97089	587.40015	-94.69083	405.93036	609.04602	-158.95470	378.41492	511.42542	-140.64914	372.00250	353.76657	-58.52650	348.31732	247.92940	-53.15211	267.38586	101.93817	-82.79845	214.05093	68.39632	-24.85658	392.16248	34.27604	-126.07518	421.84210	44.71257	-8.36044	461.47693	46.99721	-42.07800	
36	0.29167	511.38208	1441.03076	164.63310	502.67242	1468.89917	-208.44240	454.19116	1528.78113	-24.49466	563.50250	992.84808	111.32835	537.95117	991.36249	-160.80098	366.25311	1020.32220	-11.69954	691.84668	739.28961	69.71901	722.86511	638.81720	87.52440	640.30408	634.02527	144.08131	666.90808	526.25989	127.85979	734.32422	376.70093	66.51776	751.87280	258.71741	66.66609	731.95508	104.25589	109.13689	697.47821	55.77102	51.09315	864.41815	68.73459	155.73317	897.54694	87.13459	38.84981	927.56384	111.96989	91.72334	520.48962	662.04297	-101.86314	490.56580	585.44415	-94.96008	411.72009	608.11786	-159.22566	382.87433	510.87119	-140.82845	374.75909	353.26590	-58.73489	350.01727	247.72902	-53.36424	267.71375	102.23531	-82.84337	214.17130	69.14451	-24.85913	392.12939	34.18140	-126.05875	421.89087	44.85666	-8.12564	461.44836	46.85677	-42.18959	
